Coda Normal-Medium.ufo
<glyph name="plus" format="1">
  <advance width="1210"/>
  <unicode hex="002B"/>
  <outline>
    <contour>
      <point x="479" y="169" type="line"/>
      <point x="729" y="169" type="line"/>
      <point x="729" y="538" type="line"/>
      <point x="1057" y="538" type="line"/>
      <point x="1057" y="779" type="line"/>
      <point x="729" y="779" type="line"/>
      <point x="729" y="1150" type="line"/>
      <point x="479" y="1150" type="line"/>
      <point x="479" y="779" type="line"/>
      <point x="151" y="779" type="line"/>
      <point x="151" y="538" type="line"/>
      <point x="479" y="538" type="line"/>
    </contour>
  </outline>
</glyph>
<glyph name="five" format="1">
  <advance width="1380"/>
  <unicode hex="0035"/>
  <outline>
    <contour>
      <point x="706" y="-26" type="curve" smooth="yes"/>
      <point x="1122" y="-26"/>
      <point x="1265" y="74"/>
      <point x="1265" y="501" type="curve" smooth="yes"/>
      <point x="1265" y="853"/>
      <point x="1179" y="1019"/>
      <point x="821" y="1019" type="curve" smooth="yes"/>
      <point x="619" y="1019"/>
      <point x="551" y="955"/>
      <point x="502" y="874" type="curve"/>
      <point x="523" y="1320" type="line"/>
      <point x="1160" y="1320" type="line"/>
      <point x="1160" y="1537" type="line"/>
      <point x="225" y="1537" type="line"/>
      <point x="205" y="659" type="line"/>
      <point x="512" y="652" type="line"/>
      <point x="519" y="685"/>
      <point x="534" y="786"/>
      <point x="555" y="798" type="curve" smooth="yes"/>
      <point x="586" y="816"/>
      <point x="664" y="817"/>
      <point x="719" y="817" type="curve" smooth="yes"/>
      <point x="904" y="817"/>
      <point x="941" y="793"/>
      <point x="941" y="663" type="curve" smooth="yes"/>
      <point x="941" y="634"/>
      <point x="943" y="342"/>
      <point x="943" y="317" type="curve" smooth="yes"/>
      <point x="943" y="233"/>
      <point x="889" y="178"/>
      <point x="704" y="178" type="curve" smooth="yes"/>
      <point x="567" y="178"/>
      <point x="507" y="192"/>
      <point x="495" y="272" type="curve" smooth="yes"/>
      <point x="493" y="284"/>
      <point x="491" y="403"/>
      <point x="490" y="419" type="curve"/>
      <point x="191" y="407" type="line"/>
      <point x="191" y="394"/>
      <point x="189" y="341"/>
      <point x="189" y="329" type="curve" smooth="yes"/>
      <point x="188" y="46"/>
      <point x="364" y="-26"/>
    </contour>
  </outline>
</glyph>
<glyph name="seven" format="1">
  <advance width="1380"/>
  <unicode hex="0037"/>
  <outline>
    <contour>
      <point x="399" y="0" type="line"/>
      <point x="751" y="0" type="line"/>
      <point x="1224" y="1311" type="line"/>
      <point x="1224" y="1536" type="line"/>
      <point x="189" y="1536" type="line"/>
      <point x="189" y="1321" type="line"/>
      <point x="876" y="1321" type="line"/>
    </contour>
  </outline>
</glyph>
<glyph name="eight" format="1">
  <advance width="1380"/>
  <unicode hex="0038"/>
  <outline>
    <contour>
      <point x="690" y="-27" type="curve" smooth="yes"/>
      <point x="1084" y="-27"/>
      <point x="1258" y="47"/>
      <point x="1258" y="390" type="curve" smooth="yes"/>
      <point x="1258" y="678"/>
      <point x="1189" y="754"/>
      <point x="1048" y="823" type="curve"/>
      <point x="1149" y="870"/>
      <point x="1179" y="994"/>
      <point x="1179" y="1171" type="curve" smooth="yes"/>
      <point x="1179" y="1470"/>
      <point x="1074" y="1561"/>
      <point x="689" y="1561" type="curve" smooth="yes"/>
      <point x="299" y="1561"/>
      <point x="196" y="1470"/>
      <point x="196" y="1171" type="curve" smooth="yes"/>
      <point x="196" y="994"/>
      <point x="225" y="870"/>
      <point x="325" y="823" type="curve"/>
      <point x="185" y="754"/>
      <point x="117" y="678"/>
      <point x="117" y="390" type="curve" smooth="yes"/>
      <point x="117" y="46"/>
      <point x="291" y="-27"/>
    </contour>
    <contour>
      <point x="689" y="173" type="curve" smooth="yes"/>
      <point x="452" y="173"/>
      <point x="426" y="235"/>
      <point x="426" y="363" type="curve" smooth="yes"/>
      <point x="426" y="491" type="line" smooth="yes"/>
      <point x="426" y="703"/>
      <point x="494" y="705"/>
      <point x="690" y="705" type="curve" smooth="yes"/>
      <point x="881" y="705"/>
      <point x="949" y="702"/>
      <point x="949" y="491" type="curve" smooth="yes"/>
      <point x="949" y="363" type="line" smooth="yes"/>
      <point x="949" y="235"/>
      <point x="922" y="173"/>
    </contour>
    <contour>
      <point x="560" y="882" type="line"/>
      <point x="495" y="932"/>
      <point x="484" y="1019"/>
      <point x="484" y="1167" type="curve" smooth="yes"/>
      <point x="484" y="1341"/>
      <point x="510" y="1358"/>
      <point x="690" y="1358" type="curve" smooth="yes"/>
      <point x="865" y="1358"/>
      <point x="891" y="1340"/>
      <point x="891" y="1167" type="curve" smooth="yes"/>
      <point x="891" y="1009"/>
      <point x="876" y="932"/>
      <point x="811" y="882" type="curve"/>
    </contour>
  </outline>
</glyph>
<glyph name="less" format="1">
  <advance width="1123"/>
  <unicode hex="003C"/>
  <outline>
    <contour>
      <point x="931" y="131" type="line"/>
      <point x="931" y="480" type="line"/>
      <point x="382" y="744" type="line"/>
      <point x="931" y="1000" type="line"/>
      <point x="931" y="1354" type="line"/>
      <point x="169" y="918" type="line"/>
      <point x="169" y="558" type="line"/>
    </contour>
  </outline>
</glyph>
<glyph name="equal" format="1">
  <advance width="1193"/>
  <unicode hex="003D"/>
  <outline>
    <contour>
      <point x="177" y="176" type="line"/>
      <point x="1034" y="176" type="line"/>
      <point x="1034" y="430" type="line"/>
      <point x="177" y="430" type="line"/>
    </contour>
    <contour>
      <point x="177" y="634" type="line"/>
      <point x="1034" y="634" type="line"/>
      <point x="1034" y="888" type="line"/>
      <point x="177" y="888" type="line"/>
    </contour>
  </outline>
</glyph>
<glyph name="at" format="1">
  <advance width="2160"/>
  <unicode hex="0040"/>
  <outline>
    <contour>
      <point x="1113" y="-304" type="curve" smooth="yes"/>
      <point x="1340" y="-304"/>
      <point x="1547" y="-263"/>
      <point x="1704" y="-187" type="curve"/>
      <point x="1654" y="-32" type="line"/>
      <point x="1463" y="-107"/>
      <point x="1248" y="-132"/>
      <point x="1136" y="-132" type="curve" smooth="yes"/>
      <point x="562" y="-132"/>
      <point x="401" y="98"/>
      <point x="401" y="673" type="curve" smooth="yes"/>
      <point x="401" y="1187"/>
      <point x="565" y="1437"/>
      <point x="1123" y="1437" type="curve" smooth="yes"/>
      <point x="1636" y="1437"/>
      <point x="1768" y="1257"/>
      <point x="1768" y="740" type="curve" smooth="yes"/>
      <point x="1768" y="560"/>
      <point x="1759" y="322"/>
      <point x="1720" y="298" type="curve"/>
      <point x="1697" y="284"/>
      <point x="1593" y="284"/>
      <point x="1534" y="284" type="curve"/>
      <point x="1534" y="880" type="line" smooth="yes"/>
      <point x="1534" y="1121"/>
      <point x="1419" y="1217"/>
      <point x="1135" y="1217" type="curve" smooth="yes"/>
      <point x="873" y="1217"/>
      <point x="705" y="1186"/>
      <point x="707" y="968" type="curve" smooth="yes"/>
      <point x="707" y="952"/>
      <point x="709" y="905"/>
      <point x="713" y="888" type="curve"/>
      <point x="966" y="888" type="line"/>
      <point x="963" y="914"/>
      <point x="955" y="1009"/>
      <point x="971" y="1026" type="curve" smooth="yes"/>
      <point x="990" y="1046"/>
      <point x="1046" y="1049"/>
      <point x="1120" y="1049" type="curve"/>
      <point x="1231" y="1049"/>
      <point x="1274" y="1040"/>
      <point x="1274" y="969" type="curve" smooth="yes"/>
      <point x="1274" y="744" type="line"/>
      <point x="1178" y="759"/>
      <point x="1053" y="764"/>
      <point x="989" y="764" type="curve" smooth="yes"/>
      <point x="750" y="762"/>
      <point x="660" y="630"/>
      <point x="663" y="421" type="curve" smooth="yes"/>
      <point x="665" y="197"/>
      <point x="777" y="123"/>
      <point x="1022" y="123" type="curve" smooth="yes"/>
      <point x="1210" y="123"/>
      <point x="1276" y="184"/>
      <point x="1317" y="271" type="curve"/>
      <point x="1349" y="182"/>
      <point x="1432" y="126"/>
      <point x="1547" y="125" type="curve" smooth="yes"/>
      <point x="1938" y="125"/>
      <point x="1994" y="345"/>
      <point x="1994" y="756" type="curve" smooth="yes"/>
      <point x="1994" y="1390"/>
      <point x="1780" y="1620"/>
      <point x="1110" y="1620" type="curve" smooth="yes"/>
      <point x="461" y="1620"/>
      <point x="178" y="1358"/>
      <point x="178" y="655" type="curve" smooth="yes"/>
      <point x="178" y="-84"/>
      <point x="507" y="-304"/>
    </contour>
    <contour>
      <point x="1111" y="279" type="curve" smooth="yes"/>
      <point x="965" y="279"/>
      <point x="931" y="303"/>
      <point x="931" y="368" type="curve" smooth="yes"/>
      <point x="931" y="487"/>
      <point x="959" y="637"/>
      <point x="1060" y="638" type="curve" smooth="yes"/>
      <point x="1274" y="639" type="line"/>
      <point x="1273" y="403" type="line" smooth="yes"/>
      <point x="1272" y="339"/>
      <point x="1210" y="279"/>
    </contour>
  </outline>
</glyph>
<glyph name="A" format="1">
  <advance width="1491"/>
  <unicode hex="0041"/>
  <outline>
    <contour>
      <point x="745" y="1529" type="move" name="top"/>
    </contour>
    <contour>
      <point x="1209" y="0" type="move" name="ogonek"/>
    </contour>
    <contour>
      <point x="745" y="0" type="move" name="bot"/>
    </contour>
    <contour>
      <point x="495" y="1536" type="line"/>
      <point x="95" y="0" type="line"/>
      <point x="435" y="0" type="line"/>
      <point x="526" y="374" type="line"/>
      <point x="956" y="374" type="line"/>
      <point x="1050" y="0" type="line"/>
      <point x="1397" y="0" type="line"/>
      <point x="1001" y="1536" type="line"/>
    </contour>
    <contour>
      <point x="923" y="547" type="line"/>
      <point x="560" y="547" type="line"/>
      <point x="738" y="1319" type="line"/>
      <point x="745" y="1319" type="line"/>
    </contour>
  </outline>
</glyph>
<glyph name="H" format="1">
  <advance width="1570"/>
  <unicode hex="0048"/>
  <outline>
    <contour>
      <point x="785" y="1529" type="move" name="top"/>
    </contour>
    <contour>
      <point x="785" y="0" type="move" name="bot"/>
    </contour>
    <contour>
      <point x="789" y="765" type="move" name="center"/>
    </contour>
    <contour>
      <point x="1031" y="1536" type="line"/>
      <point x="1031" y="871" type="line"/>
      <point x="540" y="871" type="line"/>
      <point x="540" y="1536" type="line"/>
      <point x="188" y="1536" type="line"/>
      <point x="188" y="0" type="line"/>
      <point x="540" y="0" type="line"/>
      <point x="540" y="686" type="line"/>
      <point x="1031" y="686" type="line"/>
      <point x="1031" y="0" type="line"/>
      <point x="1382" y="0" type="line"/>
      <point x="1382" y="1536" type="line"/>
    </contour>
  </outline>
</glyph>
<glyph name="L" format="1">
  <advance width="1100"/>
  <unicode hex="004C"/>
  <outline>
    <contour>
      <point x="426" y="1529" type="move" name="top"/>
    </contour>
    <contour>
      <point x="425" y="1173" type="move" name="caron.alt"/>
    </contour>
    <contour>
      <point x="577" y="0" type="move" name="bot"/>
    </contour>
    <contour>
      <point x="188" y="1536" type="line"/>
      <point x="188" y="0" type="line"/>
      <point x="1015" y="0" type="line"/>
      <point x="1027" y="192" type="line"/>
      <point x="540" y="192" type="line"/>
      <point x="540" y="1536" type="line"/>
    </contour>
  </outline>
</glyph>
<glyph name="Q" format="1">
  <advance width="1548"/>
  <unicode hex="0051"/>
  <outline>
    <contour>
      <point x="793" y="54" type="line"/>
      <point x="1081" y="-389" type="line"/>
      <point x="1294" y="-263" type="line"/>
      <point x="1070" y="94" type="line"/>
    </contour>
    <component base="O"/>
  </outline>
</glyph>
<glyph name="R" format="1">
  <advance width="1511"/>
  <unicode hex="0052"/>
  <outline>
    <contour>
      <point x="758" y="1529" type="move" name="top"/>
    </contour>
    <contour>
      <point x="758" y="0" type="move" name="bot"/>
    </contour>
    <contour>
      <point x="188" y="0" type="line"/>
      <point x="539" y="0" type="line"/>
      <point x="539" y="645" type="line"/>
      <point x="798" y="645" type="line" smooth="yes"/>
      <point x="892" y="645"/>
      <point x="956" y="581"/>
      <point x="971" y="488" type="curve" smooth="yes"/>
      <point x="1010" y="0" type="line"/>
      <point x="1371" y="0" type="line"/>
      <point x="1322" y="453" type="line" smooth="yes"/>
      <point x="1307" y="605"/>
      <point x="1240" y="716"/>
      <point x="1054" y="745" type="curve"/>
      <point x="1054" y="748" type="line" smooth="yes"/>
      <point x="1262" y="776"/>
      <point x="1345" y="885"/>
      <point x="1345" y="1134" type="curve" smooth="yes"/>
      <point x="1345" y="1484"/>
      <point x="1164" y="1536"/>
      <point x="813" y="1536" type="curve" smooth="yes"/>
      <point x="188" y="1536" type="line"/>
    </contour>
    <contour>
      <point x="539" y="836" type="line"/>
      <point x="539" y="1346" type="line"/>
      <point x="815" y="1346" type="line" smooth="yes"/>
      <point x="992" y="1346"/>
      <point x="1001" y="1217"/>
      <point x="1001" y="1100" type="curve" smooth="yes"/>
      <point x="1001" y="973"/>
      <point x="982" y="836"/>
      <point x="823" y="836" type="curve" smooth="yes"/>
    </contour>
  </outline>
</glyph>
<glyph name="grave" format="1">
  <advance width="904"/>
  <unicode hex="0060"/>
  <outline>
    <contour>
      <point x="566" y="1172" type="move" name="_top"/>
    </contour>
    <contour>
      <point x="192" y="1677" type="curve" smooth="yes"/>
      <point x="192" y="1627"/>
      <point x="219" y="1571"/>
      <point x="280" y="1539" type="curve" smooth="yes"/>
      <point x="334" y="1506"/>
      <point x="673" y="1397"/>
      <point x="750" y="1370" type="curve" smooth="yes"/>
      <point x="765" y="1364"/>
      <point x="779" y="1368"/>
      <point x="787" y="1376" type="curve" smooth="yes"/>
      <point x="799" y="1387"/>
      <point x="801" y="1408"/>
      <point x="782" y="1428" type="curve" smooth="yes"/>
      <point x="722" y="1493"/>
      <point x="482" y="1732"/>
      <point x="420" y="1776" type="curve" smooth="yes"/>
      <point x="389" y="1798"/>
      <point x="356" y="1812"/>
      <point x="321" y="1812" type="curve" smooth="yes"/>
      <point x="242" y="1812"/>
      <point x="192" y="1747"/>
    </contour>
  </outline>
</glyph>
<glyph name="f" format="1">
  <advance width="908"/>
  <unicode hex="0066"/>
  <outline>
    <contour>
      <point x="454" y="1342" type="move" name="top"/>
    </contour>
    <contour>
      <point x="261" y="1186" type="curve"/>
      <point x="103" y="1186" type="line"/>
      <point x="103" y="1034" type="line"/>
      <point x="261" y="1034" type="line"/>
      <point x="261" y="0" type="line"/>
      <point x="596" y="0" type="line"/>
      <point x="596" y="1034" type="line"/>
      <point x="837" y="1034" type="line"/>
      <point x="837" y="1186" type="line"/>
      <point x="596" y="1186" type="line"/>
      <point x="596" y="1219"/>
      <point x="595" y="1322"/>
      <point x="595" y="1341" type="curve" smooth="yes"/>
      <point x="595" y="1411"/>
      <point x="634" y="1414"/>
      <point x="677" y="1414" type="curve" smooth="yes"/>
      <point x="713" y="1414"/>
      <point x="815" y="1414"/>
      <point x="837" y="1413" type="curve"/>
      <point x="837" y="1583" type="line"/>
      <point x="754" y="1606"/>
      <point x="672" y="1614"/>
      <point x="595" y="1614" type="curve" smooth="yes"/>
      <point x="334" y="1614"/>
      <point x="261" y="1508"/>
    </contour>
  </outline>
</glyph>
<glyph name="g" format="1">
  <advance width="1334"/>
  <unicode hex="0067"/>
  <outline>
    <contour>
      <point x="656" y="1172" type="move" name="top"/>
    </contour>
    <contour>
      <point x="668" y="0" type="move" name="bot"/>
    </contour>
    <contour>
      <point x="136" y="751" type="curve" smooth="yes"/>
      <point x="136" y="495" type="line" smooth="yes"/>
      <point x="136" y="181"/>
      <point x="199" y="50"/>
      <point x="553" y="50" type="curve" smooth="yes"/>
      <point x="706" y="50"/>
      <point x="806" y="87"/>
      <point x="851" y="175" type="curve"/>
      <point x="851" y="-81" type="line" smooth="yes"/>
      <point x="835" y="-149"/>
      <point x="788" y="-188"/>
      <point x="594" y="-188" type="curve" smooth="yes"/>
      <point x="482" y="-188"/>
      <point x="375" y="-175"/>
      <point x="299" y="-154" type="curve"/>
      <point x="269" y="-358" type="line"/>
      <point x="365" y="-389"/>
      <point x="487" y="-408"/>
      <point x="643" y="-408" type="curve" smooth="yes"/>
      <point x="1058" y="-408"/>
      <point x="1183" y="-257"/>
      <point x="1183" y="138" type="curve" smooth="yes"/>
      <point x="1183" y="1186" type="line"/>
      <point x="881" y="1186" type="line"/>
      <point x="856" y="1068" type="line"/>
      <point x="801" y="1167"/>
      <point x="691" y="1207"/>
      <point x="526" y="1207" type="curve" smooth="yes"/>
      <point x="212" y="1207"/>
      <point x="136" y="1083"/>
    </contour>
    <contour>
      <point x="670" y="225" type="curve" smooth="yes"/>
      <point x="470" y="225"/>
      <point x="473" y="285"/>
      <point x="471" y="356" type="curve" smooth="yes"/>
      <point x="469" y="418"/>
      <point x="470" y="825"/>
      <point x="470" y="899" type="curve" smooth="yes"/>
      <point x="470" y="1021"/>
      <point x="518" y="1036"/>
      <point x="657" y="1036" type="curve" smooth="yes"/>
      <point x="780" y="1036"/>
      <point x="848" y="1013"/>
      <point x="848" y="952" type="curve" smooth="yes"/>
      <point x="847" y="275" type="line" smooth="yes"/>
      <point x="847" y="235"/>
      <point x="736" y="225"/>
    </contour>
  </outline>
</glyph>
<glyph name="m" format="1">
  <advance width="1978"/>
  <unicode hex="006D"/>
  <outline>
    <contour>
      <point x="993" y="1172" type="move" name="top"/>
    </contour>
    <contour>
      <point x="993" y="0" type="move" name="bot"/>
    </contour>
    <contour>
      <point x="1119" y="1068" type="curve"/>
      <point x="1068" y="1168"/>
      <point x="969" y="1207"/>
      <point x="819" y="1207" type="curve" smooth="yes"/>
      <point x="672" y="1207"/>
      <point x="553" y="1172"/>
      <point x="494" y="1070" type="curve"/>
      <point x="468" y="1186" type="line"/>
      <point x="166" y="1186" type="line"/>
      <point x="166" y="0" type="line"/>
      <point x="498" y="0" type="line"/>
      <point x="499" y="989" type="line" smooth="yes"/>
      <point x="499" y="1029"/>
      <point x="608" y="1041"/>
      <point x="663" y="1041" type="curve" smooth="yes"/>
      <point x="800" y="1041"/>
      <point x="834" y="1010"/>
      <point x="834" y="895" type="curve" smooth="yes"/>
      <point x="834" y="0" type="line"/>
      <point x="1165" y="0" type="line"/>
      <point x="1164" y="879" type="line" smooth="yes"/>
      <point x="1164" y="919"/>
      <point x="1164" y="954"/>
      <point x="1168" y="985" type="curve" smooth="yes"/>
      <point x="1182" y="1023"/>
      <point x="1252" y="1041"/>
      <point x="1351" y="1041" type="curve" smooth="yes"/>
      <point x="1464" y="1041"/>
      <point x="1496" y="989"/>
      <point x="1496" y="859" type="curve" smooth="yes"/>
      <point x="1496" y="0" type="line"/>
      <point x="1829" y="0" type="line"/>
      <point x="1829" y="792" type="line" smooth="yes"/>
      <point x="1829" y="1103"/>
      <point x="1736" y="1207"/>
      <point x="1447" y="1207" type="curve" smooth="yes"/>
      <point x="1287" y="1207"/>
      <point x="1176" y="1166"/>
    </contour>
  </outline>
</glyph>
<glyph name="p" format="1">
  <advance width="1357"/>
  <unicode hex="0070"/>
  <outline>
    <contour>
      <point x="679" y="1172" type="move" name="top"/>
    </contour>
    <contour>
      <point x="679" y="0" type="move" name="bot"/>
    </contour>
    <contour>
      <point x="166" y="-397" type="line"/>
      <point x="501" y="-389" type="line"/>
      <point x="501" y="93" type="line"/>
      <point x="539" y="15"/>
      <point x="655" y="-21"/>
      <point x="815" y="-21" type="curve" smooth="yes"/>
      <point x="1143" y="-21"/>
      <point x="1223" y="122"/>
      <point x="1223" y="464" type="curve" smooth="yes"/>
      <point x="1223" y="739" type="line" smooth="yes"/>
      <point x="1223" y="1067"/>
      <point x="1142" y="1207"/>
      <point x="826" y="1207" type="curve" smooth="yes"/>
      <point x="660" y="1207"/>
      <point x="535" y="1164"/>
      <point x="485" y="1069" type="curve"/>
      <point x="460" y="1186" type="line"/>
      <point x="166" y="1186" type="line"/>
    </contour>
    <contour>
      <point x="693" y="153" type="curve" smooth="yes"/>
      <point x="556" y="153"/>
      <point x="498" y="186"/>
      <point x="498" y="339" type="curve" smooth="yes"/>
      <point x="498" y="874" type="line" smooth="yes"/>
      <point x="498" y="1016"/>
      <point x="533" y="1034"/>
      <point x="693" y="1034" type="curve" smooth="yes"/>
      <point x="872" y="1034"/>
      <point x="883" y="973"/>
      <point x="883" y="895" type="curve" smooth="yes"/>
      <point x="883" y="320" type="line" smooth="yes"/>
      <point x="883" y="172"/>
      <point x="848" y="153"/>
    </contour>
  </outline>
</glyph>
<glyph name="q" format="1">
  <advance width="1356"/>
  <unicode hex="0071"/>
  <outline>
    <contour>
      <point x="151" y="739" type="curve" smooth="yes"/>
      <point x="151" y="464" type="line" smooth="yes"/>
      <point x="151" y="122"/>
      <point x="232" y="-21"/>
      <point x="565" y="-21" type="curve" smooth="yes"/>
      <point x="725" y="-21"/>
      <point x="835" y="18"/>
      <point x="873" y="96" type="curve"/>
      <point x="873" y="-389" type="line"/>
      <point x="1209" y="-397" type="line"/>
      <point x="1209" y="1186" type="line"/>
      <point x="915" y="1186" type="line"/>
      <point x="889" y="1069" type="line"/>
      <point x="839" y="1164"/>
      <point x="721" y="1207"/>
      <point x="554" y="1207" type="curve" smooth="yes"/>
      <point x="233" y="1207"/>
      <point x="151" y="1067"/>
    </contour>
    <contour>
      <point x="681" y="153" type="curve" smooth="yes"/>
      <point x="526" y="153"/>
      <point x="492" y="172"/>
      <point x="492" y="320" type="curve" smooth="yes"/>
      <point x="492" y="901" type="line" smooth="yes"/>
      <point x="492" y="973"/>
      <point x="503" y="1034"/>
      <point x="681" y="1034" type="curve" smooth="yes"/>
      <point x="841" y="1034"/>
      <point x="876" y="1016"/>
      <point x="876" y="874" type="curve" smooth="yes"/>
      <point x="876" y="339" type="line" smooth="yes"/>
      <point x="876" y="189"/>
      <point x="818" y="153"/>
    </contour>
  </outline>
</glyph>
<glyph name="t" format="1">
  <advance width="931"/>
  <unicode hex="0074"/>
  <outline>
    <contour>
      <point x="434" y="1377" type="move" name="top"/>
    </contour>
    <contour>
      <point x="415" y="1273" type="move" name="caron.alt"/>
    </contour>
    <contour>
      <point x="506" y="0" type="move" name="bot"/>
    </contour>
    <contour>
      <point x="448" y="701" type="move" name="mid"/>
    </contour>
    <contour>
      <point x="257" y="1511" type="line"/>
      <point x="257" y="1186" type="line"/>
      <point x="100" y="1186" type="line"/>
      <point x="100" y="1036" type="line"/>
      <point x="257" y="1036" type="line"/>
      <point x="257" y="291" type="line" smooth="yes"/>
      <point x="257" y="40"/>
      <point x="377" y="-18"/>
      <point x="625" y="-19" type="curve" smooth="yes"/>
      <point x="705" y="-20"/>
      <point x="784" y="-9"/>
      <point x="832" y="-4" type="curve"/>
      <point x="834" y="176" type="line"/>
      <point x="667" y="163"/>
      <point x="592" y="178"/>
      <point x="592" y="276" type="curve" smooth="yes"/>
      <point x="592" y="1036" type="line"/>
      <point x="791" y="1036" type="line"/>
      <point x="791" y="1186" type="line"/>
      <point x="592" y="1186" type="line"/>
      <point x="592" y="1511" type="line"/>
    </contour>
  </outline>
</glyph>
<glyph name="asciitilde" format="1">
  <advance width="1279"/>
  <unicode hex="007E"/>
  <outline>
    <contour>
      <point x="889" y="611" type="curve" smooth="yes"/>
      <point x="1055" y="594"/>
      <point x="1135" y="709"/>
      <point x="1164" y="939" type="curve"/>
      <point x="1057" y="980" type="line"/>
      <point x="1011" y="876"/>
      <point x="977" y="828"/>
      <point x="867" y="850" type="curve" smooth="yes"/>
      <point x="734" y="879"/>
      <point x="581" y="1035"/>
      <point x="391" y="1008" type="curve" smooth="yes"/>
      <point x="276" y="992"/>
      <point x="182" y="914"/>
      <point x="142" y="709" type="curve"/>
      <point x="233" y="653" type="line"/>
      <point x="267" y="760"/>
      <point x="318" y="792"/>
      <point x="401" y="785" type="curve" smooth="yes"/>
      <point x="551" y="771"/>
      <point x="717" y="628"/>
    </contour>
  </outline>
</glyph>
<glyph name="cent" format="1">
  <advance width="1486"/>
  <unicode hex="00A2"/>
  <outline>
    <contour>
      <point x="710" y="1804" type="line"/>
      <point x="710" y="1481" type="line"/>
      <point x="842" y="1481" type="line"/>
      <point x="842" y="1804" type="line"/>
    </contour>
    <contour>
      <point x="712" y="42" type="line"/>
      <point x="712" y="-264" type="line"/>
      <point x="844" y="-264" type="line"/>
      <point x="844" y="42" type="line"/>
    </contour>
    <component base="C"/>
  </outline>
</glyph>
<glyph name="sterling" format="1">
  <advance width="1577"/>
  <unicode hex="00A3"/>
  <outline>
    <contour>
      <point x="151" y="0" type="line"/>
      <point x="158" y="0"/>
      <point x="250" y="0"/>
      <point x="257" y="1" type="curve" smooth="yes"/>
      <point x="414" y="6"/>
      <point x="508" y="40"/>
      <point x="556" y="135" type="curve"/>
      <point x="596" y="36"/>
      <point x="747" y="0"/>
      <point x="962" y="0" type="curve" smooth="yes"/>
      <point x="1268" y="0"/>
      <point x="1379" y="61"/>
      <point x="1402" y="274" type="curve" smooth="yes"/>
      <point x="1411" y="308"/>
      <point x="1415" y="432"/>
      <point x="1418" y="492" type="curve"/>
      <point x="1105" y="508" type="line"/>
      <point x="1096" y="251" type="line" smooth="yes"/>
      <point x="1092" y="213"/>
      <point x="994" y="208"/>
      <point x="896" y="208" type="curve" smooth="yes"/>
      <point x="753" y="208"/>
      <point x="644" y="216"/>
      <point x="634" y="245" type="curve"/>
      <point x="644" y="313"/>
      <point x="648" y="709"/>
      <point x="648" y="708" type="curve"/>
      <point x="1105" y="708" type="line"/>
      <point x="1105" y="884" type="line"/>
      <point x="648" y="884" type="line"/>
      <point x="648" y="952"/>
      <point x="637" y="1201"/>
      <point x="637" y="1286" type="curve" smooth="yes"/>
      <point x="637" y="1342"/>
      <point x="660" y="1368"/>
      <point x="852" y="1368" type="curve" smooth="yes"/>
      <point x="996" y="1368"/>
      <point x="1045" y="1363"/>
      <point x="1050" y="1322" type="curve" smooth="yes"/>
      <point x="1055" y="1282"/>
      <point x="1056" y="1101"/>
      <point x="1058" y="1061" type="curve"/>
      <point x="1384" y="1074" type="line"/>
      <point x="1380" y="1226"/>
      <point x="1377" y="1287"/>
      <point x="1366" y="1338" type="curve" smooth="yes"/>
      <point x="1335" y="1536"/>
      <point x="1169" y="1582"/>
      <point x="882" y="1582" type="curve" smooth="yes"/>
      <point x="491" y="1582"/>
      <point x="294" y="1499"/>
      <point x="294" y="1141" type="curve" smooth="yes"/>
      <point x="294" y="1091"/>
      <point x="304" y="956"/>
      <point x="304" y="885" type="curve"/>
      <point x="153" y="885" type="line"/>
      <point x="153" y="709" type="line"/>
      <point x="307" y="709" type="line"/>
      <point x="306" y="328" type="line" smooth="yes"/>
      <point x="306" y="240"/>
      <point x="261" y="211"/>
      <point x="152" y="207" type="curve"/>
    </contour>
  </outline>
</glyph>
<glyph name="brokenbar" format="1">
  <advance width="759"/>
  <unicode hex="00A6"/>
  <outline>
    <contour>
      <point x="218" y="1669" type="line"/>
      <point x="218" y="813" type="line"/>
      <point x="548" y="813" type="line"/>
      <point x="548" y="1669" type="line"/>
    </contour>
    <contour>
      <point x="218" y="608" type="line"/>
      <point x="218" y="-248" type="line"/>
      <point x="548" y="-248" type="line"/>
      <point x="548" y="608" type="line"/>
    </contour>
  </outline>
</glyph>
<glyph name="guillemotleft" format="1">
  <advance width="1692"/>
  <unicode hex="00AB"/>
  <outline>
    <contour>
      <point x="730" y="225" type="curve" smooth="yes"/>
      <point x="771" y="225"/>
      <point x="802" y="260"/>
      <point x="802" y="301" type="curve" smooth="yes"/>
      <point x="802" y="321"/>
      <point x="795" y="343"/>
      <point x="778" y="362" type="curve"/>
      <point x="393" y="779" type="line"/>
      <point x="778" y="1197" type="line"/>
      <point x="795" y="1220"/>
      <point x="803" y="1241"/>
      <point x="803" y="1258" type="curve" smooth="yes"/>
      <point x="803" y="1302"/>
      <point x="772" y="1337"/>
      <point x="731" y="1334" type="curve" smooth="yes"/>
      <point x="714" y="1337"/>
      <point x="696" y="1329"/>
      <point x="674" y="1312" type="curve" smooth="yes"/>
      <point x="163" y="926" type="line" smooth="yes"/>
      <point x="112" y="888"/>
      <point x="85" y="835"/>
      <point x="85" y="778" type="curve"/>
      <point x="85" y="726"/>
      <point x="110" y="672"/>
      <point x="163" y="632" type="curve" smooth="yes"/>
      <point x="674" y="246" type="line" smooth="yes"/>
      <point x="693" y="231"/>
      <point x="713" y="225"/>
    </contour>
    <contour>
      <point x="1355" y="225" type="curve" smooth="yes"/>
      <point x="1396" y="225"/>
      <point x="1427" y="260"/>
      <point x="1427" y="301" type="curve" smooth="yes"/>
      <point x="1427" y="321"/>
      <point x="1420" y="343"/>
      <point x="1403" y="362" type="curve"/>
      <point x="1018" y="779" type="line"/>
      <point x="1403" y="1197" type="line"/>
      <point x="1420" y="1220"/>
      <point x="1427" y="1241"/>
      <point x="1427" y="1258" type="curve" smooth="yes"/>
      <point x="1427" y="1302"/>
      <point x="1397" y="1337"/>
      <point x="1356" y="1334" type="curve" smooth="yes"/>
      <point x="1339" y="1337"/>
      <point x="1320" y="1329"/>
      <point x="1299" y="1312" type="curve" smooth="yes"/>
      <point x="788" y="926" type="line" smooth="yes"/>
      <point x="737" y="888"/>
      <point x="710" y="835"/>
      <point x="710" y="778" type="curve"/>
      <point x="710" y="726"/>
      <point x="735" y="672"/>
      <point x="788" y="632" type="curve" smooth="yes"/>
      <point x="1299" y="246" type="line" smooth="yes"/>
      <point x="1319" y="231"/>
      <point x="1338" y="225"/>
    </contour>
  </outline>
</glyph>
<glyph name="macron" format="1">
  <advance width="1018"/>
  <unicode hex="00AF"/>
  <outline>
    <contour>
      <point x="554" y="1172" type="move" name="_top"/>
    </contour>
    <contour>
      <point x="554" y="1472" type="move" name="_mid"/>
    </contour>
    <contour>
      <point x="216" y="1576" type="line"/>
      <point x="216" y="1403" type="line"/>
      <point x="900" y="1403" type="line"/>
      <point x="900" y="1576" type="line"/>
    </contour>
  </outline>
</glyph>
<glyph name="twosuperior" format="1">
  <advance width="1158"/>
  <unicode hex="00B2"/>
  <outline>
    <contour>
      <point x="213" y="480" type="line"/>
      <point x="1002" y="480" type="line"/>
      <point x="1002" y="647" type="line"/>
      <point x="459" y="647" type="line"/>
      <point x="459" y="747"/>
      <point x="492" y="808"/>
      <point x="657" y="862" type="curve" smooth="yes"/>
      <point x="826" y="925"/>
      <point x="1029" y="980"/>
      <point x="1029" y="1222" type="curve" smooth="yes"/>
      <point x="1029" y="1488"/>
      <point x="882" y="1555"/>
      <point x="620" y="1555" type="curve" smooth="yes"/>
      <point x="377" y="1555"/>
      <point x="206" y="1494"/>
      <point x="208" y="1224" type="curve" smooth="yes"/>
      <point x="208" y="1182" type="line"/>
      <point x="465" y="1193" type="line"/>
      <point x="465" y="1311" type="line" smooth="yes"/>
      <point x="465" y="1355"/>
      <point x="494" y="1390"/>
      <point x="622" y="1389" type="curve" smooth="yes"/>
      <point x="741" y="1389"/>
      <point x="776" y="1366"/>
      <point x="776" y="1322" type="curve" smooth="yes"/>
      <point x="776" y="1214" type="line" smooth="yes"/>
      <point x="776" y="1138"/>
      <point x="708" y="1113"/>
      <point x="571" y="1073" type="curve" smooth="yes"/>
      <point x="320" y="993"/>
      <point x="213" y="893"/>
      <point x="213" y="631" type="curve" smooth="yes"/>
    </contour>
  </outline>
</glyph>
<glyph name="onesuperior" format="1">
  <advance width="850"/>
  <unicode hex="00B9"/>
  <outline>
    <contour>
      <point x="331" y="461" type="line"/>
      <point x="594" y="461" type="line"/>
      <point x="594" y="1536" type="line"/>
      <point x="408" y="1536" type="line"/>
      <point x="351" y="1501"/>
      <point x="277" y="1481"/>
      <point x="187" y="1481" type="curve"/>
      <point x="187" y="1348" type="line"/>
      <point x="331" y="1348" type="line"/>
    </contour>
  </outline>
</glyph>
<glyph name="multiply" format="1">
  <advance width="1141"/>
  <unicode hex="00D7"/>
  <outline>
    <contour>
      <point x="330" y="163" type="curve"/>
      <point x="568" y="424" type="line"/>
      <point x="806" y="163" type="line"/>
      <point x="1010" y="400" type="line"/>
      <point x="774" y="661" type="line"/>
      <point x="1010" y="922" type="line"/>
      <point x="806" y="1158" type="line"/>
      <point x="568" y="898" type="line"/>
      <point x="330" y="1158" type="line"/>
      <point x="288" y="1118"/>
      <point x="143" y="938"/>
      <point x="126" y="922" type="curve"/>
      <point x="258" y="791"/>
      <point x="358" y="665"/>
      <point x="363" y="661" type="curve"/>
      <point x="126" y="400" type="line"/>
      <point x="168" y="359"/>
      <point x="313" y="179"/>
    </contour>
  </outline>
</glyph>
<glyph name="Thorn" format="1">
  <advance width="1447"/>
  <unicode hex="00DE"/>
  <outline>
    <contour>
      <point x="181" y="0" type="line"/>
      <point x="530" y="0" type="line"/>
      <point x="530" y="324" type="line"/>
      <point x="718" y="324" type="line" smooth="yes"/>
      <point x="992" y="324"/>
      <point x="1320" y="340"/>
      <point x="1320" y="748" type="curve" smooth="yes"/>
      <point x="1320" y="932" type="line" smooth="yes"/>
      <point x="1314" y="1281"/>
      <point x="1138" y="1341"/>
      <point x="735" y="1341" type="curve" smooth="yes"/>
      <point x="530" y="1341" type="line"/>
      <point x="530" y="1538" type="line"/>
      <point x="181" y="1538" type="line"/>
    </contour>
    <contour>
      <point x="530" y="521" type="line"/>
      <point x="530" y="1147" type="line"/>
      <point x="737" y="1147" type="line" smooth="yes"/>
      <point x="946" y="1147"/>
      <point x="972" y="983"/>
      <point x="972" y="832" type="curve" smooth="yes"/>
      <point x="972" y="719"/>
      <point x="970" y="521"/>
      <point x="794" y="521" type="curve" smooth="yes"/>
    </contour>
  </outline>
</glyph>
<glyph name="germandbls" format="1">
  <advance width="1372"/>
  <unicode hex="00DF"/>
  <outline>
    <contour>
      <point x="168" y="-194" type="line"/>
      <point x="476" y="-185" type="line"/>
      <point x="476" y="1203" type="line"/>
      <point x="476" y="1340"/>
      <point x="548" y="1346"/>
      <point x="679" y="1346" type="curve" smooth="yes"/>
      <point x="802" y="1346"/>
      <point x="870" y="1327"/>
      <point x="870" y="1236" type="curve" smooth="yes"/>
      <point x="870" y="1155"/>
      <point x="865" y="927"/>
      <point x="809" y="927" type="curve" smooth="yes"/>
      <point x="615" y="927" type="line"/>
      <point x="615" y="743" type="line"/>
      <point x="809" y="742" type="line" smooth="yes"/>
      <point x="915" y="742"/>
      <point x="920" y="578"/>
      <point x="916" y="448" type="curve" smooth="yes"/>
      <point x="913" y="308"/>
      <point x="891" y="175"/>
      <point x="784" y="175" type="curve" smooth="yes"/>
      <point x="586" y="176" type="line"/>
      <point x="586" y="-16" type="line"/>
      <point x="773" y="-16" type="line" smooth="yes"/>
      <point x="1023" y="-16"/>
      <point x="1225" y="46"/>
      <point x="1225" y="325" type="curve" smooth="yes"/>
      <point x="1225" y="507" type="line" smooth="yes"/>
      <point x="1225" y="748"/>
      <point x="1105" y="836"/>
      <point x="953" y="846" type="curve"/>
      <point x="1089" y="865"/>
      <point x="1149" y="964"/>
      <point x="1149" y="1167" type="curve" smooth="yes"/>
      <point x="1149" y="1452"/>
      <point x="1013" y="1540"/>
      <point x="680" y="1540" type="curve" smooth="yes"/>
      <point x="355" y="1540"/>
      <point x="168" y="1474"/>
      <point x="168" y="1169" type="curve" smooth="yes"/>
    </contour>
  </outline>
</glyph>
<glyph name="oslash" format="1">
  <advance width="1631"/>
  <unicode hex="00F8"/>
  <outline>
    <contour>
      <point x="675" y="1185" type="move" name="top"/>
    </contour>
    <contour>
      <point x="136" y="-13" type="line"/>
      <point x="1264" y="1152" type="line"/>
      <point x="1206" y="1210" type="line"/>
      <point x="78" y="45" type="line"/>
    </contour>
    <component base="o"/>
  </outline>
</glyph>
<glyph name="thorn" format="1">
  <advance width="1354"/>
  <unicode hex="00FE"/>
  <outline>
    <contour>
      <point x="166" y="-405" type="line"/>
      <point x="501" y="-396" type="line"/>
      <point x="501" y="93" type="line"/>
      <point x="545" y="17"/>
      <point x="659" y="-24"/>
      <point x="832" y="-24" type="curve" smooth="yes"/>
      <point x="1129" y="-24"/>
      <point x="1203" y="119"/>
      <point x="1203" y="466" type="curve" smooth="yes"/>
      <point x="1203" y="708" type="line" smooth="yes"/>
      <point x="1203" y="994"/>
      <point x="1157" y="1236"/>
      <point x="820" y="1236" type="curve" smooth="yes"/>
      <point x="646" y="1236"/>
      <point x="535" y="1205"/>
      <point x="500" y="1123" type="curve"/>
      <point x="500" y="1589" type="line"/>
      <point x="166" y="1581" type="line"/>
    </contour>
    <contour>
      <point x="698" y="169" type="curve" smooth="yes"/>
      <point x="558" y="169"/>
      <point x="500" y="170"/>
      <point x="500" y="287" type="curve" smooth="yes"/>
      <point x="500" y="341"/>
      <point x="500" y="836"/>
      <point x="500" y="934" type="curve" smooth="yes"/>
      <point x="500" y="1036"/>
      <point x="537" y="1048"/>
      <point x="711" y="1048" type="curve" smooth="yes"/>
      <point x="842" y="1048"/>
      <point x="887" y="1044"/>
      <point x="887" y="918" type="curve" smooth="yes"/>
      <point x="887" y="864"/>
      <point x="887" y="369"/>
      <point x="887" y="308" type="curve" smooth="yes"/>
      <point x="887" y="194"/>
      <point x="842" y="169"/>
    </contour>
  </outline>
</glyph>
<glyph name="Hbar" format="1">
  <advance width="1623"/>
  <unicode hex="0126"/>
  <outline>
    <contour>
      <point x="213" y="0" type="line"/>
      <point x="565" y="0" type="line"/>
      <point x="565" y="686" type="line"/>
      <point x="1056" y="686" type="line"/>
      <point x="1056" y="0" type="line"/>
      <point x="1407" y="0" type="line"/>
      <point x="1407" y="1116" type="line"/>
      <point x="1495" y="1116" type="line"/>
      <point x="1495" y="1259" type="line"/>
      <point x="1407" y="1259" type="line"/>
      <point x="1407" y="1536" type="line"/>
      <point x="1056" y="1536" type="line"/>
      <point x="1056" y="1259" type="line"/>
      <point x="565" y="1259" type="line"/>
      <point x="565" y="1536" type="line"/>
      <point x="213" y="1536" type="line"/>
      <point x="213" y="1259" type="line"/>
      <point x="128" y="1259" type="line"/>
      <point x="128" y="1116" type="line"/>
      <point x="213" y="1116" type="line"/>
    </contour>
    <contour>
      <point x="565" y="884" type="line"/>
      <point x="565" y="1116" type="line"/>
      <point x="1056" y="1116" type="line"/>
      <point x="1056" y="884" type="line"/>
    </contour>
  </outline>
</glyph>
<glyph name="apostrophemod" format="1">
  <advance width="752"/>
  <unicode hex="02BC"/>
  <outline>
    <contour>
      <point x="197" y="1433" type="curve" smooth="yes"/>
      <point x="384" y="1433"/>
      <point x="487" y="1637"/>
      <point x="487" y="1813" type="curve" smooth="yes"/>
      <point x="487" y="1923"/>
      <point x="429" y="2018"/>
      <point x="320" y="2018" type="curve" smooth="yes"/>
      <point x="224" y="2018"/>
      <point x="152" y="1950"/>
      <point x="152" y="1844" type="curve" smooth="yes"/>
      <point x="152" y="1740"/>
      <point x="221" y="1670"/>
      <point x="309" y="1665" type="curve"/>
      <point x="307" y="1582"/>
      <point x="228" y="1523"/>
      <point x="143" y="1523" type="curve"/>
      <point x="143" y="1437" type="line"/>
      <point x="156" y="1434"/>
      <point x="174" y="1433"/>
    </contour>
  </outline>
</glyph>
<glyph name="dotaccent" format="1">
  <advance width="699"/>
  <unicode hex="02D9"/>
  <outline>
    <contour>
      <point x="379" y="1172" type="move" name="_top"/>
    </contour>
    <contour>
      <point x="379" y="1418" type="curve" smooth="yes"/>
      <point x="488" y="1418"/>
      <point x="566" y="1465"/>
      <point x="566" y="1583" type="curve" smooth="yes"/>
      <point x="566" y="1698"/>
      <point x="489" y="1746"/>
      <point x="379" y="1746" type="curve" smooth="yes"/>
      <point x="271" y="1746"/>
      <point x="193" y="1700"/>
      <point x="193" y="1583" type="curve" smooth="yes"/>
      <point x="193" y="1467"/>
      <point x="270" y="1418"/>
    </contour>
  </outline>
</glyph>
<glyph name="ogonek" format="1">
  <advance width="848"/>
  <unicode hex="02DB"/>
  <outline>
    <contour>
      <point x="511" y="0" type="move" name="_ogonek"/>
    </contour>
    <contour>
      <point x="454" y="0" type="line"/>
      <point x="285" y="-148"/>
      <point x="205" y="-257"/>
      <point x="205" y="-374" type="curve" smooth="yes"/>
      <point x="205" y="-500"/>
      <point x="316" y="-568"/>
      <point x="455" y="-568" type="curve" smooth="yes"/>
      <point x="554" y="-568"/>
      <point x="661" y="-531"/>
      <point x="701" y="-499" type="curve"/>
      <point x="664" y="-366" type="line"/>
      <point x="633" y="-378"/>
      <point x="578" y="-396"/>
      <point x="532" y="-396" type="curve" smooth="yes"/>
      <point x="472" y="-396"/>
      <point x="419" y="-367"/>
      <point x="419" y="-287" type="curve" smooth="yes"/>
      <point x="419" y="-200"/>
      <point x="482" y="-97"/>
      <point x="582" y="0" type="curve"/>
    </contour>
  </outline>
</glyph>
<glyph name="Delta" format="1">
  <advance width="1442"/>
  <unicode hex="0394"/>
  <outline>
    <contour>
      <point x="80" y="0" type="line"/>
      <point x="1379" y="0" type="line"/>
      <point x="811" y="1536" type="line"/>
      <point x="625" y="1536" type="line"/>
    </contour>
    <contour>
      <point x="261" y="188" type="line"/>
      <point x="657" y="1333" type="line"/>
      <point x="1055" y="188" type="line"/>
    </contour>
  </outline>
</glyph>
<glyph name="pi" format="1">
  <advance width="1582"/>
  <unicode hex="03C0"/>
  <outline>
    <contour>
      <point x="1234" y="-29" type="curve" smooth="yes"/>
      <point x="1307" y="-29"/>
      <point x="1393" y="-5"/>
      <point x="1473" y="52" type="curve"/>
      <point x="1473" y="186" type="line"/>
      <point x="1425" y="172"/>
      <point x="1375" y="164"/>
      <point x="1336" y="165" type="curve" smooth="yes"/>
      <point x="1231" y="169"/>
      <point x="1161" y="237"/>
      <point x="1158" y="415" type="curve" smooth="yes"/>
      <point x="1154" y="556"/>
      <point x="1180" y="720"/>
      <point x="1235" y="952" type="curve"/>
      <point x="1463" y="952" type="line"/>
      <point x="1468" y="1186" type="line"/>
      <point x="499" y="1186" type="line" smooth="yes"/>
      <point x="232" y="1186"/>
      <point x="116" y="1048"/>
      <point x="116" y="802" type="curve"/>
      <point x="253" y="802" type="line"/>
      <point x="266" y="888"/>
      <point x="311" y="952"/>
      <point x="399" y="952" type="curve" smooth="yes"/>
      <point x="513" y="952" type="line"/>
      <point x="415" y="421" type="line" smooth="yes"/>
      <point x="374" y="200"/>
      <point x="263" y="169"/>
      <point x="165" y="169" type="curve"/>
      <point x="165" y="0" type="line"/>
      <point x="551" y="0"/>
      <point x="637" y="100"/>
      <point x="660" y="348" type="curve" smooth="yes"/>
      <point x="716" y="952" type="line"/>
      <point x="1062" y="952" type="line"/>
      <point x="992" y="753"/>
      <point x="912" y="533"/>
      <point x="914" y="320" type="curve" smooth="yes"/>
      <point x="917" y="85"/>
      <point x="1069" y="-29"/>
    </contour>
  </outline>
</glyph>
<glyph name="quotesinglbase" format="1">
  <advance width="634"/>
  <unicode hex="201A"/>
  <outline>
    <contour>
      <point x="344" y="-309" type="curve"/>
      <point x="361" y="-225"/>
      <point x="441" y="97"/>
      <point x="441" y="191" type="curve" smooth="yes"/>
      <point x="441" y="288"/>
      <point x="386" y="337"/>
      <point x="315" y="337" type="curve" smooth="yes"/>
      <point x="234" y="337"/>
      <point x="191" y="290"/>
      <point x="191" y="183" type="curve" smooth="yes"/>
      <point x="191" y="93"/>
      <point x="271" y="-220"/>
      <point x="288" y="-305" type="curve"/>
      <point x="292" y="-323"/>
      <point x="308" y="-333"/>
      <point x="316" y="-333" type="curve"/>
      <point x="324" y="-333"/>
      <point x="341" y="-326"/>
    </contour>
  </outline>
</glyph>
<glyph name="quotedblleft" format="1">
  <advance width="1157"/>
  <unicode hex="201C"/>
  <outline>
    <contour>
      <point x="338" y="994" type="curve" smooth="yes"/>
      <point x="430" y="994"/>
      <point x="503" y="1067"/>
      <point x="503" y="1158" type="curve" smooth="yes"/>
      <point x="503" y="1271"/>
      <point x="443" y="1329"/>
      <point x="352" y="1334" type="curve"/>
      <point x="354" y="1426"/>
      <point x="413" y="1499"/>
      <point x="497" y="1499" type="curve"/>
      <point x="497" y="1585" type="line"/>
      <point x="352" y="1591"/>
      <point x="164" y="1408"/>
      <point x="164" y="1213" type="curve" smooth="yes"/>
      <point x="164" y="1081"/>
      <point x="220" y="994"/>
    </contour>
    <contour>
      <point x="815" y="994" type="curve" smooth="yes"/>
      <point x="923" y="994"/>
      <point x="990" y="1070"/>
      <point x="990" y="1158" type="curve" smooth="yes"/>
      <point x="990" y="1271"/>
      <point x="930" y="1329"/>
      <point x="841" y="1334" type="curve"/>
      <point x="843" y="1426"/>
      <point x="903" y="1499"/>
      <point x="985" y="1499" type="curve"/>
      <point x="985" y="1585" type="line"/>
      <point x="843" y="1591"/>
      <point x="651" y="1408"/>
      <point x="651" y="1213" type="curve" smooth="yes"/>
      <point x="651" y="1093"/>
      <point x="708" y="994"/>
    </contour>
  </outline>
</glyph>
<glyph name="fraction" format="1">
  <advance width="1082"/>
  <unicode hex="2044"/>
  <outline>
    <contour>
      <point x="149" y="0" type="line"/>
      <point x="369" y="0" type="line"/>
      <point x="937" y="1536" type="line"/>
      <point x="687" y="1536" type="line"/>
    </contour>
  </outline>
</glyph>
<glyph name="uni2215" format="1">
  <advance width="917"/>
  <unicode hex="2215"/>
  <outline>
    <contour>
      <point x="116" y="0" type="line"/>
      <point x="368" y="0" type="line"/>
      <point x="884" y="1517" type="line"/>
      <point x="630" y="1517" type="line"/>
    </contour>
  </outline>
</glyph>
<glyph name="approxequal" format="1">
  <advance width="1200"/>
  <unicode hex="2248"/>
  <outline>
    <contour>
      <point x="917" y="555" type="curve" smooth="yes"/>
      <point x="1039" y="545"/>
      <point x="1091" y="608"/>
      <point x="1097" y="831" type="curve"/>
      <point x="963" y="831" type="line"/>
      <point x="958" y="752"/>
      <point x="926" y="726"/>
      <point x="873" y="726" type="curve" smooth="yes"/>
      <point x="766" y="726"/>
      <point x="572" y="829"/>
      <point x="347" y="846" type="curve" smooth="yes"/>
      <point x="237" y="855"/>
      <point x="153" y="802"/>
      <point x="144" y="562" type="curve"/>
      <point x="280" y="562" type="line"/>
      <point x="279" y="647"/>
      <point x="313" y="676"/>
      <point x="372" y="676" type="curve" smooth="yes"/>
      <point x="487" y="676"/>
      <point x="719" y="569"/>
    </contour>
    <contour>
      <point x="886" y="551" type="curve" smooth="yes"/>
      <point x="1008" y="541"/>
      <point x="1061" y="603"/>
      <point x="1066" y="826" type="curve"/>
      <point x="932" y="826" type="line"/>
      <point x="927" y="747"/>
      <point x="895" y="721"/>
      <point x="842" y="721" type="curve" smooth="yes"/>
      <point x="735" y="721"/>
      <point x="541" y="824"/>
      <point x="316" y="841" type="curve" smooth="yes"/>
      <point x="206" y="851"/>
      <point x="122" y="797"/>
      <point x="113" y="558" type="curve"/>
      <point x="249" y="558" type="line"/>
      <point x="248" y="643"/>
      <point x="282" y="672"/>
      <point x="341" y="672" type="curve" smooth="yes"/>
      <point x="456" y="672"/>
      <point x="688" y="565"/>
    </contour>
  </outline>
</glyph>
